<svg width="230" height="44" viewBox="0 0 230 44" fill="none" xmlns="http://www.w3.org/2000/svg">
    <g clip-path="url(#clip0_1184_221)">
        <mask id="mask0_1184_221" style="mask-type:luminance" maskUnits="userSpaceOnUse" x="0" y="0"
            width="230" height="44">
            <path d="M230 0H0V43.3772H230V0Z" fill="white" />
        </mask>
        <g mask="url(#mask0_1184_221)">
            <path fill-rule="evenodd" clip-rule="evenodd"
                d="M37.6953 0H0V43.3772H7.65685V25.9552H35.3393V18.4887H7.65685V6.39993H37.6953V0ZM46.5302 14.222H40.9348V43.3772H46.5302V14.222ZM50.6531 43.3772V14.222H55.3649L78.041 35.1996V14.222H83.3419V43.3772H78.6301L55.954 22.3998V43.3772H50.6531ZM101.306 14.222L85.4034 43.3772H91.2933L103.662 21.333L115.442 43.3772H121.627L105.429 14.222H101.306ZM123.393 43.3772V14.222H128.106L150.781 35.5552V14.222H155.788V43.3772H151.076L128.106 22.3998V43.3772H123.393ZM192.893 14.222H160.205V19.5553H183.175L160.205 39.1107V43.3772H192.893V37.6884H170.218L192.893 18.4887V14.222ZM194.072 43.3772L209.974 14.222H214.098L230 43.3772H223.816L212.331 20.9776L199.962 43.3772H194.072Z"
                fill="white" />
            <path
                d="M221.082 6.1747H219.279V11.801H218.06V6.1747H216.281V5.10303H221.082V6.1747ZM223.358 5.10303L224.872 9.94044L226.38 5.10303H227.974V11.801H226.744V9.94044L226.879 6.77008L225.285 11.801H224.455L222.867 6.77751L222.989 9.94044V11.801H221.777V5.10303H223.358Z"
                fill="white" />
        </g>
    </g>
    <defs>
        <clipPath id="clip0_1184_221">
            <rect width="230" height="43.3772" fill="white" />
        </clipPath>
    </defs>
</svg>
